Coordinates
version=1
nRows=19
nColumns=24
inDegrees=yes

Units are S.I. units (second, meters, Newtons, ...)
Angles are in degrees.

endheader
time	pelvis_tilt	pelvis_list	pelvis_rotation	pelvis_tx	pelvis_ty	pelvis_tz	hip_flexion_r	hip_adduction_r	hip_rotation_r	knee_angle_r	ankle_angle_r	subtalar_angle_r	mtp_angle_r	hip_flexion_l	hip_adduction_l	hip_rotation_l	knee_angle_l	ankle_angle_l	subtalar_angle_l	mtp_angle_l	lumbar_extension	lumbar_bending	lumbar_rotation
      1.58750000	      3.13255221	      4.11322620	     -1.99852497	      0.41962670	      1.07461332	      0.31088315	     13.69604990	     -5.59603199	      0.35795046	    -61.98814410	      1.31544786	    -11.55628221	      5.40429154	      1.13011555	      9.35064308	     -4.28238589	     -5.51903030	      1.83776002	      1.55282196	      2.21237900	      2.70088135	     -2.50009903	     -0.57956191
      1.59166667	      3.14946004	      4.11622174	     -1.90276283	      0.42422976	      1.07498124	      0.31065148	     14.18417586	     -5.56847713	      0.47006801	    -61.63297074	      1.74438393	    -11.97324025	      5.31167868	      0.70578489	      9.37826193	     -4.14963162	     -5.27705805	      1.93293172	      1.60707653	      2.16207717	      2.66817388	     -2.49565590	     -0.69417442
      1.59583333	      3.15190205	      4.10564288	     -1.77044870	      0.42884560	      1.07532441	      0.31043100	     14.66360179	     -5.52622286	      0.54501121	    -61.23055526	      2.17167076	    -12.39745707	      5.17338948	      0.29896311	      9.38112409	     -4.03416677	     -5.05144735	      2.03939993	      1.63664460	      2.08464442	      2.63114517	     -2.50708171	     -0.84639672
      1.60000000	      3.14264494	      4.10371947	     -1.70764984	      0.43340941	      1.07559947	      0.31028137	     15.16805725	     -5.47937060	      0.71823652	    -60.78485984	      2.38498299	    -12.55514475	      5.13258304	     -0.10450221	      9.39527057	     -3.90180840	     -4.78606192	      2.07899484	      1.70490683	      2.06291492	      2.58659598	     -2.49542882	     -0.90229274
      1.60416667	      3.15977374	      4.11526448	     -1.58796189	      0.43800056	      1.07588982	      0.30998347	     15.61935845	     -5.47643452	      0.77862249	    -60.33685595	      2.92365850	    -12.97541595	      4.99765382	     -0.53882466	      9.43444978	     -3.74675157	     -4.52835848	      2.20428275	      1.72201466	      1.98630432	      2.59309377	     -2.48418731	     -1.05133172
      1.60833333	      3.15935536	      4.12309058	     -1.49269243	      0.44256675	      1.07612836	      0.30977530	     16.08373413	     -5.45483734	      0.88967595	    -59.83041448	      3.28317738	    -13.23427816	      4.84551395	     -0.95797459	      9.46090327	     -3.58034136	     -4.25233288	      2.29063394	      1.74362431	      1.89762938	      2.58732669	     -2.48671038	     -1.20149274
      1.61250000	      3.14288172	      4.14623580	     -1.44113365	      0.44708592	      1.07628812	      0.30958180	     16.57428331	     -5.44357169	      1.05177115	    -59.29796280	      3.51570672	    -13.36979229	      4.77368280	     -1.36012376	      9.50928619	     -3.42862965	     -3.96050078	      2.33825980	      1.80203486	      1.85631074	      2.58707177	     -2.47534989	     -1.27415447
      1.61666667	      3.10358951	      4.14379201	     -1.34912782	      0.45164501	      1.07642488	      0.30947805	     17.05484435	     -5.39592555	      1.18536745	    -58.70150330	      3.71775792	    -13.46891752	      4.73581372	     -1.72926638	      9.50950401	     -3.34025943	     -3.70482137	      2.38469949	      1.83310684	      1.83472758	      2.54679269	     -2.49854227	     -1.31447554
      1.62083333	      3.07518356	      4.15843915	     -1.28861625	      0.45621152	      1.07653150	      0.30935008	     17.52115596	     -5.37083561	      1.33163477	    -58.08472191	      3.99352653	    -13.60609192	      4.68900976	     -2.12571367	      9.53769819	     -3.19112865	     -3.40894988	      2.45019090	      1.87634225	      1.80793476	      2.56814837	     -2.50001469	     -1.36896397
      1.62500000	      3.07291568	      4.19028535	     -1.20841696	      0.46075757	      1.07663071	      0.30908631	     17.94936861	     -5.38740185	      1.42734981	    -57.45748816	      4.35742214	    -13.77661794	      4.60264574	     -2.55266143	      9.59808783	     -3.00416365	     -3.10775035	      2.55390814	      1.88446117	      1.75597035	      2.64253158	     -2.47903911	     -1.46521089
      1.62916667	      3.03363728	      4.20572865	     -1.12667492	      0.46529410	      1.07666102	      0.30891855	     18.40105915	     -5.37229107	      1.54190963	    -56.77052146	      4.58069002	    -13.85345182	      4.51880128	     -2.93328013	      9.62521836	     -2.84471053	     -2.82125689	      2.62655799	      1.88249702	      1.70395988	      2.65301078	     -2.48808059	     -1.55451415
      1.63333333	      2.97924864	      4.22813655	     -1.04127104	      0.46978754	      1.07663891	      0.30883245	     18.85895901	     -5.35486322	      1.66571463	    -56.04286642	      4.71032815	    -13.88707010	      4.48075794	     -3.27854140	      9.64888196	     -2.76787535	     -2.57152967	      2.66929474	      1.89411486	      1.68048173	      2.61367541	     -2.52958784	     -1.59366463
      1.63750000	      2.87464161	      4.27417589	     -0.90089173	      0.47431150	      1.07650490	      0.30846497	     19.35356579	     -5.40850309	      1.70232582	    -55.31024743	      5.00562820	    -13.89345575	      4.02536666	     -3.60555312	      9.72091186	     -2.32548093	     -2.26123279	      2.78776446	      1.61339431	      1.37607321	      2.72538193	     -2.53518037	     -1.97435716
      1.64166667	      2.85464442	      4.29631106	     -0.87455146	      0.47887874	      1.07646441	      0.30842695	     19.75233238	     -5.38098515	      1.85811604	    -54.51030632	      5.07040763	    -13.90832281	      3.96215865	     -4.00659368	      9.75078315	     -2.28196345	     -1.96449125	      2.80057848	      1.65160785	      1.33464592	      2.78857859	     -2.59443297	     -1.98365089
      1.64583333	      2.80163647	      4.32570508	     -0.82047909	      0.48338107	      1.07633559	      0.30838092	     20.17679273	     -5.36664967	      1.99315694	    -53.68688967	      5.14262562	    -13.92265590	      3.92390403	     -4.35546708	      9.78114142	     -2.22186811	     -1.70890718	      2.83811530	      1.68347411	      1.31015678	      2.76781454	     -2.63141687	     -1.99469348
      1.65000000	      2.76876490	      4.36454579	     -0.79466583	      0.48794462	      1.07619617	      0.30827565	     20.57050096	     -5.36791922	      2.12355353	    -52.83924057	      5.19652314	    -13.93359356	      3.85596793	     -4.74905864	      9.83595569	     -2.08797161	     -1.40146258	      2.91276501	      1.71632632	      1.26552212	      2.85174655	     -2.64122930	     -2.01478063
      1.65416667	      2.70047320	      4.40754271	     -0.73570239	      0.49244745	      1.07597891	      0.30823836	     20.98581947	     -5.37023438	      2.23926261	    -51.95629895	      5.24136887	    -13.93485384	      3.81883898	     -5.07636107	      9.87822473	     -2.02472646	     -1.15720349	      2.96392507	      1.73321289	      1.24109171	      2.83291230	     -2.69104669	     -2.02467096
      1.65833333	      2.65974266	      4.44655888	     -0.71019532	      0.49701582	      1.07576188	      0.30814607	     21.36103239	     -5.37216956	      2.35114714	    -51.04106573	      5.22447560	    -13.92319426	      3.74632451	     -5.45818655	      9.93108997	     -1.87186542	     -0.85877842	      3.05907020	      1.74768979	      1.19187351	      2.94354757	     -2.70623279	     -2.04593412
      1.66250000	      2.58409686	      4.49280484	     -0.65440294	      0.50150326	      1.07546589	      0.30813233	     21.76041663	     -5.37524983	      2.46269906	    -50.09787891	      5.23143217	    -13.91749998	      3.70383027	     -5.77041490	      9.97343299	     -1.80175765	     -0.63019425	      3.11708429	      1.75482940	      1.16281414	      2.93765989	     -2.75780478	     -2.05620057
